<?xml version="1.0" encoding="utf-8"?>
<!-- Generator: Adobe Illustrator 24.1.0, SVG Export Plug-In . SVG Version: 6.00 Build 0)  -->
<svg version="1.1" id="Layer_1" xmlns="http://www.w3.org/2000/svg" xmlns:xlink="http://www.w3.org/1999/xlink" x="0px" y="0px"
	 viewBox="0 0 32 32" style="enable-background:new 0 0 32 32;" xml:space="preserve">
<style type="text/css">
	.st0{fill-rule:evenodd;clip-rule:evenodd;fill:#010101;}
	.st1{fill-rule:evenodd;clip-rule:evenodd;fill:#FFFFFF;}
	.st2{display:none;fill:#FFFFFF;}
</style>
<rect class="st0" width="32" height="32"/>
<path class="st1" d="M16,2C8.1,2,1.7,8.4,1.7,16.4c0,6.2,4,11.7,9.8,13.6c0.7,0.1,1-0.3,1-0.7c0-0.3,0-1.2,0-2.4
	c-4,0.9-4.8-1.9-4.8-1.9C7.3,24,6.8,23.3,6,22.8c-1.3-0.9,0.1-0.9,0.1-0.9c0.9,0.1,1.7,0.7,2.2,1.5c0.8,1.5,2.7,2,4.1,1.2
	c0,0,0,0,0,0c0.1-0.7,0.4-1.4,0.9-1.9c-3.2-0.4-6.5-1.6-6.5-7.1c0-1.4,0.5-2.8,1.5-3.8C7.9,10.5,7.9,9.2,8.5,8c0,0,1.2-0.4,3.9,1.5
	c2.4-0.6,4.8-0.6,7.2,0C22.3,7.6,23.5,8,23.5,8c0.5,1.2,0.6,2.6,0.1,3.8c1,1,1.5,2.4,1.5,3.8c0,5.5-3.4,6.7-6.5,7.1
	c0.7,0.7,1,1.7,1,2.7c0,1.9,0,3.5,0,3.9c0,0.4,0.3,0.8,1,0.7c7.5-2.5,11.6-10.6,9.1-18.2C27.6,6,22.2,2,16,2L16,2z"/>
<path class="st2" d="M9,7c0,1.4-1.1,2.5-2.5,2.5S4,8.4,4,7s1.1-2.5,2.5-2.5S9,5.6,9,7z M9,11.5H4v16h5V11.5z M17,11.5h-5v16h5v-8.4
	c0-4.7,6-5.1,6,0v8.4h5V17.4c0-7.9-8.9-7.6-11-3.7V11.5z"/>
<path class="st2" d="M29.6,7.6c-1,0.5-2,0.8-3.2,0.9c1.1-0.7,2-1.8,2.5-3.1c-1.1,0.7-2.3,1.1-3.5,1.4c-1-1.1-2.5-1.8-4.1-1.8
	c-3.6,0-6.2,3.4-5.4,6.8c-4.7-0.2-8.8-2.5-11.5-5.9C2.9,8.5,3.6,11.8,6,13.4c-0.9,0-1.8-0.2-2.5-0.7c-0.1,2.6,1.8,5,4.4,5.5
	c-0.8,0.2-1.7,0.2-2.5,0.1c0.7,2.3,2.7,3.8,5.2,3.8c-2.4,1.8-5.3,2.6-8.3,2.3c2.5,1.6,5.4,2.5,8.5,2.5c10.3,0,16.2-8.7,15.8-16.5
	C27.9,9.7,28.8,8.6,29.6,7.6z"/>
</svg>
