<?xml version="1.0" encoding="utf-8"?>
<!-- Generator: Adobe Illustrator 24.1.0, SVG Export Plug-In . SVG Version: 6.00 Build 0)  -->
<svg version="1.1" id="Layer_1" xmlns="http://www.w3.org/2000/svg" xmlns:xlink="http://www.w3.org/1999/xlink" x="0px" y="0px"
	 viewBox="0 0 32 32" style="enable-background:new 0 0 32 32;" xml:space="preserve">
<style type="text/css">
	.st0{fill-rule:evenodd;clip-rule:evenodd;fill:#010101;}
	.st1{display:none;fill-rule:evenodd;clip-rule:evenodd;fill:#FFFFFF;}
	.st2{display:none;fill:#FFFFFF;}
	.st3{fill:#FFFFFF;}
</style>
<rect class="st0" width="32" height="32"/>
<path class="st1" d="M16,0.4c-8.8,0-16,7.2-16,16c0,6.9,4.4,13,10.9,15.2c0.8,0.1,1.1-0.3,1.1-0.8c0-0.4,0-1.4,0-2.7
	c-4.5,1-5.4-2.1-5.4-2.1c-0.3-1-0.9-1.8-1.8-2.3c-1.5-1,0.1-1,0.1-1c1,0.1,1.9,0.8,2.5,1.6c0.9,1.6,3,2.3,4.6,1.3c0,0,0,0,0,0
	c0.1-0.8,0.4-1.6,1-2.1c-3.6-0.4-7.3-1.8-7.3-7.9c0-1.6,0.6-3.1,1.6-4.3C6.9,9.9,7,8.4,7.6,7c0,0,1.3-0.4,4.4,1.6
	c2.6-0.7,5.4-0.7,8,0C23.1,6.6,24.4,7,24.4,7c0.6,1.3,0.6,2.9,0.2,4.2c1.1,1.2,1.7,2.7,1.6,4.3c0,6.1-3.7,7.5-7.3,7.9
	c0.8,0.8,1.2,1.9,1.1,3c0,2.1,0,3.9,0,4.4c0,0.4,0.3,0.9,1.1,0.8c8.4-2.8,12.9-11.9,10.1-20.2C29,4.8,22.9,0.4,16,0.4L16,0.4z"/>
<path class="st2" d="M9,7c0,1.4-1.1,2.5-2.5,2.5S4,8.4,4,7s1.1-2.5,2.5-2.5S9,5.6,9,7z M9,11.5H4v16h5V11.5z M17,11.5h-5v16h5v-8.4
	c0-4.7,6-5.1,6,0v8.4h5V17.4c0-7.9-8.9-7.6-11-3.7V11.5z"/>
<path class="st3" d="M29.6,7.6c-1,0.5-2,0.8-3.2,0.9c1.1-0.7,2-1.8,2.5-3.1c-1.1,0.7-2.3,1.1-3.5,1.4c-1-1.1-2.5-1.8-4.1-1.8
	c-3.6,0-6.2,3.4-5.4,6.8c-4.7-0.2-8.8-2.5-11.5-5.9C2.9,8.5,3.6,11.8,6,13.4c-0.9,0-1.8-0.2-2.5-0.7c-0.1,2.6,1.8,5,4.4,5.5
	c-0.8,0.2-1.7,0.2-2.5,0.1c0.7,2.3,2.7,3.8,5.2,3.8c-2.4,1.8-5.3,2.6-8.3,2.3c2.5,1.6,5.4,2.5,8.5,2.5c10.3,0,16.2-8.7,15.8-16.5
	C27.9,9.7,28.8,8.6,29.6,7.6z"/>
</svg>
